<svg width="216" height="195" viewBox="0 0 216 195" fill="none" xmlns="http://www.w3.org/2000/svg">
<rect width="195" height="195" rx="41" fill="white"/>
<path d="M131.154 162.908H122.846C122.342 162.947 121.872 163.175 121.529 163.545C121.186 163.916 120.995 164.403 120.995 164.908C120.995 165.413 121.186 165.9 121.529 166.271C121.872 166.641 122.342 166.869 122.846 166.908H131.154C131.658 166.869 132.128 166.641 132.471 166.271C132.814 165.9 133.005 165.413 133.005 164.908C133.005 164.403 132.814 163.916 132.471 163.545C132.128 163.175 131.658 162.947 131.154 162.908ZM71.154 162.908H62.846C62.3423 162.947 61.8719 163.175 61.5288 163.545C61.1857 163.916 60.995 164.403 60.995 164.908C60.995 165.413 61.1857 165.9 61.5288 166.271C61.8719 166.641 62.3423 166.869 62.846 166.908H71.154C71.6577 166.869 72.1281 166.641 72.4712 166.271C72.8144 165.9 73.005 165.413 73.005 164.908C73.005 164.403 72.8144 163.916 72.4712 163.545C72.1281 163.175 71.6577 162.947 71.154 162.908ZM117 162.908H77C76.4696 162.908 75.9609 163.119 75.5858 163.494C75.2107 163.869 75 164.378 75 164.908C75 165.438 75.2107 165.947 75.5858 166.322C75.9609 166.697 76.4696 166.908 77 166.908H92.94V168.908H85C84.4696 168.908 83.9609 169.119 83.5858 169.494C83.2107 169.869 83 170.378 83 170.908C83 171.438 83.2107 171.947 83.5858 172.322C83.9609 172.697 84.4696 172.908 85 172.908H110C110.53 172.908 111.039 172.697 111.414 172.322C111.789 171.947 112 171.438 112 170.908C112 170.378 111.789 169.869 111.414 169.494C111.039 169.119 110.53 168.908 110 168.908H101.06V166.908H117C117.53 166.908 118.039 166.697 118.414 166.322C118.789 165.947 119 165.438 119 164.908C119 164.378 118.789 163.869 118.414 163.494C118.039 163.119 117.53 162.908 117 162.908Z" fill="#0BCEB2"/>
<path d="M86.89 45.828L82.56 41.498C82.1845 41.1223 81.7386 40.8244 81.2479 40.621C80.7571 40.4177 80.2312 40.3131 79.7 40.3131C79.1688 40.3131 78.6428 40.4177 78.1521 40.621C77.6614 40.8244 77.2155 41.1223 76.84 41.498L74.63 43.698C74.62 43.688 74.62 43.668 74.6 43.658L70.27 39.328C69.5117 38.5702 68.4841 38.1437 67.4121 38.1418C66.34 38.1399 65.3109 38.5629 64.55 39.318L63.07 40.798L63.04 40.768L57.26 34.988C56.5017 34.2302 55.4741 33.8037 54.4021 33.8018C53.33 33.7999 52.3009 34.2229 51.54 34.978L50.06 36.458L50.03 36.428L45.7 32.088C44.9404 31.3315 43.912 30.9068 42.84 30.9068C41.768 30.9068 40.7396 31.3315 39.98 32.088L34.19 37.858C33.8137 38.2329 33.5149 38.6782 33.3107 39.1686C33.1066 39.659 33.001 40.1848 33.0001 40.7159C32.9991 41.2471 33.1029 41.7733 33.3053 42.2643C33.5078 42.7554 33.805 43.2018 34.18 43.578L38.52 47.918C38.53 47.928 38.54 47.928 38.55 47.938L37.07 49.418C36.6911 49.7914 36.3906 50.2367 36.1863 50.7279C35.9819 51.219 35.8778 51.746 35.88 52.278C35.8792 52.8089 35.983 53.3347 36.1854 53.8254C36.3879 54.3161 36.6851 54.7622 37.06 55.138L42.84 60.918C42.85 60.928 42.86 60.928 42.87 60.938L41.39 62.418C40.6342 63.178 40.21 64.2062 40.21 65.278C40.21 66.3498 40.6342 67.378 41.39 68.138L45.72 72.468L45.75 72.498L43.55 74.688C42.7901 75.446 42.3621 76.4747 42.36 77.548C42.3578 78.08 42.4619 78.607 42.6663 79.0981C42.8706 79.5893 43.1711 80.0346 43.55 80.408L47.88 84.748C48.6402 85.5034 49.6683 85.9276 50.74 85.928C51.271 85.9301 51.7972 85.8269 52.2881 85.6243C52.779 85.4218 53.2249 85.1239 53.6 84.748L64.49 73.888L67.32 71.068L73.17 65.228L76 62.408L86.89 51.548C87.2671 51.1733 87.5663 50.7277 87.7706 50.2368C87.9748 49.746 88.0799 49.2196 88.0799 48.688C88.0799 48.1564 87.9748 47.63 87.7706 47.1392C87.5663 46.6483 87.2671 46.2027 86.89 45.828ZM37.01 40.698L42.87 34.918L47.2 39.308L41.41 45.088C41.39 45.108 41.36 45.108 41.35 45.088L37.01 40.698ZM39.89 52.248L54.43 37.818L60.21 43.648L45.74 58.088C45.729 58.093 45.7171 58.0955 45.705 58.0955C45.6929 58.0955 45.681 58.093 45.67 58.088L39.89 52.248ZM44.22 65.248L67.44 42.148L71.77 46.548L48.62 69.638C48.6155 69.6428 48.6101 69.6466 48.6041 69.6492C48.598 69.6518 48.5915 69.6532 48.585 69.6532C48.5784 69.6532 48.5719 69.6518 48.5659 69.6492C48.5599 69.6466 48.5545 69.6428 48.55 69.638L44.22 65.248ZM50.77 81.918C50.76 81.938 50.73 81.938 50.71 81.918L46.38 77.528L79.73 44.328L84.06 48.718L50.77 81.918Z" fill="#2D4356"/>
<path d="M64.49 73.893L67.319 71.065L85.5 89.248L82.672 92.075L64.49 73.893ZM73.17 65.233L75.998 62.406L94.17 80.578L91.342 83.406L73.17 65.233Z" fill="#0BCEB2"/>
<path d="M15 158.908C16.1046 158.908 17 158.013 17 156.908C17 155.803 16.1046 154.908 15 154.908C13.8954 154.908 13 155.803 13 156.908C13 158.013 13.8954 158.908 15 158.908Z" fill="#2D4356"/>
<path d="M24 154.908H21C20.4696 154.908 19.9609 155.119 19.5858 155.494C19.2107 155.869 19 156.378 19 156.908C19 157.438 19.2107 157.947 19.5858 158.322C19.9609 158.697 20.4696 158.908 21 158.908H24C24.5304 158.908 25.0391 158.697 25.4142 158.322C25.7893 157.947 26 157.438 26 156.908C26 156.378 25.7893 155.869 25.4142 155.494C25.0391 155.119 24.5304 154.908 24 154.908ZM173 154.908H170C169.47 154.908 168.961 155.119 168.586 155.494C168.211 155.869 168 156.378 168 156.908C168 157.438 168.211 157.947 168.586 158.322C168.961 158.697 169.47 158.908 170 158.908H173C173.53 158.908 174.039 158.697 174.414 158.322C174.789 157.947 175 157.438 175 156.908C175 156.378 174.789 155.869 174.414 155.494C174.039 155.119 173.53 154.908 173 154.908Z" fill="#2D4356"/>
<path d="M179 158.908C180.105 158.908 181 158.013 181 156.908C181 155.803 180.105 154.908 179 154.908C177.895 154.908 177 155.803 177 156.908C177 158.013 177.895 158.908 179 158.908Z" fill="#2D4356"/>
<path d="M163.72 154.908H156.85L159.81 151.958C160.186 151.583 160.485 151.138 160.689 150.647C160.893 150.157 160.999 149.631 161 149.1C161.001 148.569 160.897 148.043 160.695 147.552C160.492 147.061 160.195 146.614 159.82 146.238L155.48 141.898C155.47 141.888 155.46 141.888 155.45 141.878L156.93 140.398C157.309 140.025 157.609 139.579 157.814 139.088C158.018 138.597 158.122 138.07 158.12 137.538C158.121 137.007 158.017 136.481 157.815 135.991C157.612 135.5 157.315 135.054 156.94 134.678L151.16 128.908L151.13 128.878L152.61 127.398C153.366 126.638 153.79 125.61 153.79 124.538C153.79 123.466 153.366 122.438 152.61 121.678L148.25 117.318L150.45 115.128C151.21 114.37 151.638 113.341 151.64 112.268C151.642 111.736 151.538 111.209 151.334 110.718C151.129 110.227 150.829 109.781 150.45 109.408L146.12 105.068C145.359 104.314 144.331 103.89 143.26 103.89C142.189 103.89 141.161 104.314 140.4 105.068L129.51 115.928L126.68 118.748L120.83 124.588L118 127.408L107.11 138.268C106.733 138.643 106.434 139.088 106.229 139.579C106.025 140.07 105.92 140.596 105.92 141.128C105.92 141.66 106.025 142.186 106.229 142.677C106.434 143.168 106.733 143.613 107.11 143.988L111.44 148.318C112.2 149.074 113.228 149.498 114.3 149.498C115.372 149.498 116.4 149.074 117.16 148.318L119.37 146.118C119.38 146.128 119.38 146.148 119.4 146.158L123.73 150.488C124.105 150.865 124.55 151.165 125.041 151.369C125.532 151.573 126.058 151.678 126.59 151.678C127.661 151.676 128.689 151.252 129.45 150.498L130.93 149.018L136.74 154.828C136.77 154.858 136.8 154.878 136.83 154.908H57.17C57.2 154.878 57.23 154.858 57.26 154.828L63.07 149.018L64.55 150.498C65.3113 151.252 66.3387 151.676 67.41 151.678C67.9417 151.678 68.4681 151.573 68.9589 151.369C69.4498 151.165 69.8954 150.865 70.27 150.488L74.6 146.158C74.62 146.148 74.62 146.128 74.63 146.118L76.84 148.328C77.6028 149.08 78.6312 149.5 79.7021 149.498C80.7729 149.496 81.7998 149.072 82.56 148.318L86.89 143.988C87.2671 143.613 87.5664 143.168 87.7706 142.677C87.9748 142.186 88.0799 141.66 88.0799 141.128C88.0799 140.596 87.9748 140.07 87.7706 139.579C87.5664 139.088 87.2671 138.643 86.89 138.268L76 127.408L73.17 124.588L67.32 118.748L64.49 115.928L53.6 105.068C52.8392 104.314 51.8113 103.89 50.74 103.89C49.6687 103.89 48.6408 104.314 47.88 105.068L43.55 109.408C43.1711 109.781 42.8706 110.227 42.6663 110.718C42.4619 111.209 42.3578 111.736 42.36 112.268C42.362 113.341 42.79 114.37 43.55 115.128L45.75 117.318L41.39 121.678C40.6342 122.438 40.21 123.466 40.21 124.538C40.21 125.61 40.6342 126.638 41.39 127.398L42.87 128.878C42.86 128.888 42.85 128.888 42.84 128.898L37.06 134.678C36.6851 135.054 36.3879 135.5 36.1855 135.991C35.983 136.481 35.8792 137.007 35.88 137.538C35.8778 138.07 35.9819 138.597 36.1863 139.088C36.3906 139.579 36.6911 140.025 37.07 140.398L38.55 141.878C38.54 141.888 38.53 141.888 38.52 141.898L34.18 146.238C33.805 146.614 33.5078 147.061 33.3053 147.552C33.1029 148.043 32.9991 148.569 33.0001 149.1C33.001 149.631 33.1066 150.157 33.3107 150.647C33.5149 151.138 33.8137 151.583 34.19 151.958L37.15 154.908H30.28C29.9955 154.871 29.7063 154.895 29.4318 154.978C29.1572 155.062 28.9037 155.203 28.688 155.392C28.4724 155.581 28.2996 155.815 28.1813 156.076C28.0629 156.337 28.0017 156.621 28.0017 156.908C28.0017 157.195 28.0629 157.479 28.1813 157.74C28.2996 158.001 28.4724 158.235 28.688 158.424C28.9037 158.613 29.1572 158.754 29.4318 158.838C29.7063 158.921 29.9955 158.945 30.28 158.908H163.72C164.005 158.945 164.294 158.921 164.568 158.838C164.843 158.754 165.096 158.613 165.312 158.424C165.528 158.235 165.7 158.001 165.819 157.74C165.937 157.479 165.998 157.195 165.998 156.908C165.998 156.621 165.937 156.337 165.819 156.076C165.7 155.815 165.528 155.581 165.312 155.392C165.096 155.203 164.843 155.062 164.568 154.978C164.294 154.895 164.005 154.871 163.72 154.908ZM50.77 107.898L84.08 141.128C84.08 141.148 84.07 141.148 84.06 141.158L79.67 145.488L46.38 112.238L50.77 107.898ZM48.62 120.178L48.78 120.338L71.79 143.298C71.7905 143.309 71.7869 143.32 71.78 143.328L67.38 147.668L44.22 124.508L48.62 120.178ZM47.2 150.558L42.8 154.898L37.01 149.068L41.41 144.728L41.48 144.798L47.21 150.538C47.21 150.548 47.21 150.558 47.2 150.558ZM48.51 154.908L50.03 153.388L50.06 153.358L51.54 154.838C51.5723 154.858 51.6025 154.882 51.63 154.908H48.51ZM39.89 137.508L45.74 131.728L60.22 146.198C60.2207 146.203 60.2201 146.209 60.2184 146.214C60.2166 146.219 60.2138 146.224 60.21 146.228L54.37 151.998L39.89 137.508ZM114.27 145.488L109.94 141.158V141.098L143.29 107.898L147.62 112.288L114.27 145.488ZM126.56 147.668L122.22 143.328L145.45 120.178L149.78 124.568L126.56 147.668ZM133.79 146.228V146.168L133.87 146.088L148.33 131.728L154.11 137.568L139.57 151.998L133.79 146.228ZM142.37 154.908C142.397 154.882 142.428 154.858 142.46 154.838L143.94 153.358L143.97 153.388L145.49 154.908H142.37ZM146.8 150.558V150.508L152.65 144.728L156.99 149.128L151.13 154.898L146.8 150.558ZM118 62.408L120.83 65.228L126.68 71.068L129.51 73.888L140.4 84.748C140.775 85.1239 141.221 85.4218 141.712 85.6243C142.203 85.8268 142.729 85.9301 143.26 85.928C144.332 85.9276 145.36 85.5034 146.12 84.748L150.45 80.408C150.829 80.0346 151.129 79.5893 151.334 79.0981C151.538 78.607 151.642 78.0799 151.64 77.548C151.638 76.4747 151.21 75.446 150.45 74.688L148.24 72.498C148.25 72.488 148.27 72.478 148.28 72.468L152.61 68.138C153.366 67.378 153.79 66.3498 153.79 65.278C153.79 64.2062 153.366 63.178 152.61 62.418L151.13 60.938C151.14 60.928 151.15 60.928 151.16 60.918L156.94 55.138C157.315 54.7622 157.612 54.3161 157.815 53.8254C158.017 53.3347 158.121 52.8089 158.12 52.278C158.122 51.746 158.018 51.219 157.814 50.7279C157.609 50.2367 157.309 49.7914 156.93 49.418L155.45 47.938C155.46 47.928 155.47 47.928 155.48 47.918L159.82 43.578C160.195 43.2018 160.492 42.7554 160.695 42.2643C160.897 41.7733 161.001 41.2471 161 40.7159C160.999 40.1847 160.893 39.659 160.689 39.1686C160.485 38.6782 160.186 38.2329 159.81 37.858L154.02 32.088C153.259 31.3337 152.231 30.9105 151.16 30.9105C150.089 30.9105 149.061 31.3337 148.3 32.088L143.97 36.428L143.94 36.458L142.46 34.978C141.699 34.2228 140.67 33.7999 139.598 33.8018C138.526 33.8037 137.498 34.2302 136.74 34.988L130.96 40.768L130.93 40.798L129.45 39.318C128.689 38.5628 127.66 38.1399 126.588 38.1418C125.516 38.1437 124.488 38.5702 123.73 39.328L119.4 43.658C119.38 43.668 119.38 43.688 119.37 43.698L117.16 41.498C116.784 41.1223 116.339 40.8243 115.848 40.621C115.357 40.4177 114.831 40.3131 114.3 40.3131C113.769 40.3131 113.243 40.4177 112.752 40.621C112.261 40.8243 111.816 41.1223 111.44 41.498L107.11 45.828C106.733 46.2027 106.434 46.6483 106.229 47.1392C106.025 47.63 105.92 48.1564 105.92 48.688C105.92 49.2196 106.025 49.746 106.229 50.2368C106.434 50.7277 106.733 51.1733 107.11 51.548L118 62.408ZM151.2 34.918L156.99 40.748L152.65 45.088H152.59L146.8 39.258L151.2 34.918ZM139.63 37.818L154.11 52.308L148.33 58.088H148.26L133.79 43.598L139.63 37.818ZM126.62 42.158L149.78 65.308L145.45 69.638H145.38L122.22 46.488L126.62 42.158ZM114.33 44.328L147.62 77.578L143.29 81.918L109.94 48.658L114.33 44.328Z" fill="#2D4356"/>
<path d="M120.83 65.228L67.32 118.748L64.49 115.928L118 62.408L120.83 65.228ZM129.51 73.888L76 127.408L73.17 124.588L126.68 71.068L129.51 73.888ZM108.514 100.55L111.347 97.727L129.497 115.942L126.664 118.764L108.514 100.55ZM99.845 109.22L102.677 106.397L120.817 124.601L117.985 127.424L99.845 109.22Z" fill="#0BCEB2"/>
<path d="M139 27.206C139.593 27.206 140.173 27.0301 140.667 26.7004C141.16 26.3708 141.545 25.9022 141.772 25.3541C141.999 24.8059 142.058 24.2027 141.942 23.6207C141.827 23.0388 141.541 22.5042 141.121 22.0847C140.702 21.6651 140.167 21.3794 139.585 21.2636C139.003 21.1479 138.4 21.2073 137.852 21.4344C137.304 21.6614 136.835 22.0459 136.506 22.5393C136.176 23.0326 136 23.6127 136 24.206C136.001 25.0014 136.317 25.764 136.88 26.3264C137.442 26.8889 138.205 27.2052 139 27.206ZM139 22.706C139.297 22.706 139.587 22.794 139.833 22.9588C140.08 23.1236 140.272 23.3579 140.386 23.632C140.499 23.9061 140.529 24.2077 140.471 24.4986C140.413 24.7896 140.27 25.0569 140.061 25.2667C139.851 25.4764 139.584 25.6193 139.293 25.6772C139.002 25.7351 138.7 25.7054 138.426 25.5918C138.152 25.4783 137.918 25.286 137.753 25.0394C137.588 24.7927 137.5 24.5027 137.5 24.206C137.5 23.8083 137.658 23.4269 137.94 23.1456C138.221 22.8644 138.602 22.7063 139 22.706ZM177 64.668C176.604 64.668 176.218 64.7853 175.889 65.0051C175.56 65.2248 175.304 65.5372 175.152 65.9026C175.001 66.2681 174.961 66.6702 175.038 67.0582C175.116 67.4461 175.306 67.8025 175.586 68.0822C175.865 68.3619 176.222 68.5524 176.61 68.6296C176.998 68.7067 177.4 68.6671 177.765 68.5158C178.131 68.3644 178.443 68.108 178.663 67.7791C178.883 67.4502 179 67.0636 179 66.668C178.999 66.1377 178.789 65.6293 178.414 65.2544C178.039 64.8794 177.53 64.6685 177 64.668ZM177 67.668C176.802 67.668 176.609 67.6094 176.444 67.4995C176.28 67.3896 176.152 67.2334 176.076 67.0507C176 66.868 175.981 66.6669 176.019 66.4729C176.058 66.2789 176.153 66.1007 176.293 65.9609C176.433 65.821 176.611 65.7258 176.805 65.6872C176.999 65.6486 177.2 65.6684 177.383 65.7441C177.565 65.8198 177.722 65.948 177.831 66.1124C177.941 66.2769 178 66.4702 178 66.668C178 66.9331 177.894 67.1873 177.707 67.3748C177.519 67.5623 177.265 67.6677 177 67.668ZM26.305 11.408C25.9094 11.408 25.5228 11.5253 25.1939 11.7451C24.865 11.9648 24.6086 12.2772 24.4572 12.6426C24.3059 13.0081 24.2663 13.4102 24.3434 13.7982C24.4206 14.1861 24.6111 14.5425 24.8908 14.8222C25.1705 15.1019 25.5269 15.2924 25.9148 15.3696C26.3028 15.4467 26.7049 15.4071 27.0704 15.2558C27.4358 15.1044 27.7482 14.848 27.9679 14.5191C28.1877 14.1902 28.305 13.8036 28.305 13.408C28.3045 12.8777 28.0936 12.3693 27.7186 11.9944C27.3437 11.6194 26.8353 11.4085 26.305 11.408ZM26.305 14.408C26.1072 14.408 25.9139 14.3494 25.7494 14.2395C25.585 14.1296 25.4568 13.9734 25.3811 13.7907C25.3054 13.608 25.2856 13.4069 25.3242 13.2129C25.3628 13.0189 25.458 12.8408 25.5979 12.7009C25.7377 12.561 25.9159 12.4658 26.1099 12.4272C26.3039 12.3886 26.505 12.4084 26.6877 12.4841C26.8704 12.5598 27.0266 12.688 27.1365 12.8524C27.2463 13.0169 27.305 13.2102 27.305 13.408C27.3047 13.6731 27.1993 13.9273 27.0118 14.1148C26.8243 14.3023 26.5701 14.4077 26.305 14.408ZM171.305 16.908C170.909 16.908 170.523 17.0253 170.194 17.2451C169.865 17.4648 169.609 17.7772 169.457 18.1426C169.306 18.5081 169.266 18.9102 169.343 19.2982C169.421 19.6861 169.611 20.0425 169.891 20.3222C170.17 20.6019 170.527 20.7924 170.915 20.8696C171.303 20.9467 171.705 20.9071 172.07 20.7558C172.436 20.6044 172.748 20.348 172.968 20.0191C173.188 19.6902 173.305 19.3036 173.305 18.908C173.304 18.3777 173.094 17.8693 172.719 17.4944C172.344 17.1194 171.835 16.9085 171.305 16.908ZM171.305 19.908C171.107 19.908 170.914 19.8494 170.749 19.7395C170.585 19.6296 170.457 19.4734 170.381 19.2907C170.305 19.108 170.286 18.9069 170.324 18.7129C170.363 18.5189 170.458 18.3408 170.598 18.2009C170.738 18.061 170.916 17.9658 171.11 17.9272C171.304 17.8886 171.505 17.9084 171.688 17.9841C171.87 18.0598 172.027 18.188 172.136 18.3524C172.246 18.5169 172.305 18.7102 172.305 18.908C172.305 19.1731 172.199 19.4273 172.012 19.6148C171.824 19.8023 171.57 19.9077 171.305 19.908ZM62.54 26.706C62.54 26.3104 62.4227 25.9238 62.2029 25.5949C61.9832 25.266 61.6708 25.0096 61.3054 24.8582C60.9399 24.7069 60.5378 24.6673 60.1498 24.7444C59.7618 24.8216 59.4055 25.0121 59.1258 25.2918C58.8461 25.5715 58.6556 25.9279 58.5784 26.3158C58.5013 26.7038 58.5409 27.1059 58.6922 27.4714C58.8436 27.8368 59.1 28.1492 59.4289 28.3689C59.7578 28.5887 60.1444 28.706 60.54 28.706C61.0703 28.7055 61.5787 28.4946 61.9536 28.1196C62.3286 27.7447 62.5395 27.2363 62.54 26.706ZM59.54 26.706C59.54 26.5082 59.5986 26.3149 59.7085 26.1504C59.8184 25.986 59.9746 25.8578 60.1573 25.7821C60.34 25.7064 60.5411 25.6866 60.7351 25.7252C60.9291 25.7638 61.1072 25.859 61.2471 25.9989C61.387 26.1388 61.4822 26.3169 61.5208 26.5109C61.5594 26.7049 61.5396 26.906 61.4639 27.0887C61.3882 27.2714 61.26 27.4276 61.0956 27.5375C60.9311 27.6474 60.7378 27.706 60.54 27.706C60.2749 27.7057 60.0207 27.6003 59.8332 27.4128C59.6457 27.2253 59.5403 26.9711 59.54 26.706Z" fill="#2D4356"/>
<path d="M21.111 45.764L22.597 43.808L21.658 43.276L20.704 45.466H20.672L19.703 43.292L18.747 43.839L20.219 45.748V45.78L17.918 45.482V46.546L20.234 46.249V46.28L18.747 48.189L19.639 48.753L20.657 46.546H20.688L21.627 48.737L22.613 48.173L21.111 46.296V46.264L23.473 46.546V45.482L21.111 45.795V45.764ZM93.904 34.145L93.048 35.244L93.562 35.568L94.148 34.298H94.166L94.706 35.559L95.274 35.235L94.409 34.153V34.136L95.769 34.298V33.685L94.409 33.865V33.847L95.265 32.721L94.725 32.415L94.175 33.676H94.157L93.599 32.424L93.048 32.739L93.896 33.838V33.856L92.571 33.685V34.298L93.904 34.127V34.145ZM168.305 54.622V53.578L165.988 53.885V53.854L167.446 51.936L166.525 51.415L165.589 53.563H165.558L164.607 51.43L163.67 51.967L165.113 53.839V53.87L162.856 53.578V54.622L165.128 54.331V54.361L163.67 56.233L164.545 56.786L165.543 54.622H165.573L166.494 56.77L167.461 56.218L165.988 54.376V54.346L168.305 54.622ZM106.271 13.196L107.529 11.542L106.735 11.092L105.928 12.945H105.901L105.08 11.105L104.272 11.568L105.517 13.183V13.21L103.57 12.958V13.858L105.53 13.607V13.633L104.272 15.248L105.026 15.725L105.888 13.858H105.914L106.708 15.712L107.542 15.235L106.271 13.646V13.62L108.27 13.858V12.958L106.271 13.223V13.196Z" fill="#0BCEB2"/>
</svg>
