<svg width="849" height="297" viewBox="0 0 849 297" fill="none" xmlns="http://www.w3.org/2000/svg">
<rect x="32" y="14" width="268" height="268" rx="41" fill="white"/>
<g clip-path="url(#clip0_1_2)">
<path d="M212.253 237.894H200.835C200.142 237.948 199.496 238.261 199.024 238.77C198.553 239.28 198.291 239.948 198.291 240.643C198.291 241.337 198.553 242.006 199.024 242.515C199.496 243.025 200.142 243.338 200.835 243.392H212.253C212.945 243.338 213.591 243.025 214.063 242.515C214.535 242.006 214.797 241.337 214.797 240.643C214.797 239.948 214.535 239.28 214.063 238.77C213.591 238.261 212.945 237.948 212.253 237.894ZM129.791 237.894H118.373C117.681 237.948 117.034 238.261 116.563 238.77C116.091 239.28 115.829 239.948 115.829 240.643C115.829 241.337 116.091 242.006 116.563 242.515C117.034 243.025 117.681 243.338 118.373 243.392H129.791C130.483 243.338 131.13 243.025 131.601 242.515C132.073 242.006 132.335 241.337 132.335 240.643C132.335 239.948 132.073 239.28 131.601 238.77C131.13 238.261 130.483 237.948 129.791 237.894ZM192.8 237.894H137.826C137.097 237.894 136.397 238.184 135.882 238.699C135.367 239.215 135.077 239.914 135.077 240.643C135.077 241.372 135.367 242.071 135.882 242.586C136.397 243.102 137.097 243.392 137.826 243.392H159.733V246.14H148.821C148.092 246.14 147.392 246.43 146.877 246.945C146.361 247.461 146.072 248.16 146.072 248.889C146.072 249.618 146.361 250.317 146.877 250.833C147.392 251.348 148.092 251.638 148.821 251.638H183.179C183.909 251.638 184.608 251.348 185.123 250.833C185.639 250.317 185.928 249.618 185.928 248.889C185.928 248.16 185.639 247.461 185.123 246.945C184.608 246.43 183.909 246.14 183.179 246.14H170.893V243.392H192.8C193.529 243.392 194.228 243.102 194.744 242.586C195.259 242.071 195.549 241.372 195.549 240.643C195.549 239.914 195.259 239.215 194.744 238.699C194.228 238.184 193.529 237.894 192.8 237.894Z" fill="#0BCEB2"/>
<path d="M151.418 76.9841L145.467 71.0332C144.951 70.5169 144.338 70.1073 143.664 69.8279C142.989 69.5485 142.266 69.4046 141.536 69.4046C140.806 69.4046 140.084 69.5485 139.409 69.8279C138.735 70.1073 138.122 70.5169 137.606 71.0332L134.568 74.0567C134.555 74.043 134.555 74.0155 134.527 74.0018L128.576 68.0508C127.534 67.0093 126.122 66.4231 124.648 66.4205C123.175 66.4179 121.761 66.9992 120.715 68.0371L118.681 70.0711L118.64 70.0299L110.696 62.0861C109.654 61.0446 108.241 60.4584 106.768 60.4558C105.295 60.4532 103.88 61.0345 102.834 62.0723L100.8 64.1064L100.759 64.0652L94.8082 58.1004C93.7643 57.0608 92.3509 56.477 90.8776 56.477C89.4042 56.477 87.9908 57.0608 86.9469 58.1004L78.9893 66.0305C78.4722 66.5457 78.0615 67.1578 77.7809 67.8317C77.5003 68.5057 77.3552 69.2283 77.354 69.9583C77.3527 70.6883 77.4952 71.4115 77.7735 72.0864C78.0517 72.7613 78.4602 73.3748 78.9756 73.8918L84.9403 79.8565C84.9541 79.8703 84.9678 79.8703 84.9816 79.884L82.9475 81.9181C82.4268 82.4312 82.0138 83.0433 81.733 83.7183C81.4521 84.3933 81.309 85.1176 81.312 85.8487C81.3109 86.5783 81.4536 87.301 81.7318 87.9754C82.0101 88.6499 82.4185 89.2629 82.9338 89.7794L90.8776 97.7232C90.8913 97.7369 90.905 97.7369 90.9188 97.7507L88.8847 99.7847C87.8461 100.829 87.263 102.242 87.263 103.715C87.263 105.188 87.8461 106.602 88.8847 107.646L94.8357 113.597L94.8769 113.638L91.8533 116.648C90.809 117.69 90.2208 119.104 90.2179 120.579C90.2148 121.31 90.3579 122.034 90.6388 122.709C90.9197 123.384 91.3326 123.996 91.8533 124.509L97.8043 130.474C98.8491 131.512 100.262 132.095 101.735 132.096C102.465 132.099 103.188 131.957 103.863 131.679C104.537 131.4 105.15 130.991 105.666 130.474L120.632 115.549L124.522 111.673L132.562 103.647L136.451 99.771L151.418 84.8455C151.936 84.3304 152.348 83.718 152.628 83.0434C152.909 82.3689 153.053 81.6454 153.053 80.9148C153.053 80.1842 152.909 79.4607 152.628 78.7861C152.348 78.1116 151.936 77.4991 151.418 76.9841ZM82.865 69.9337L90.9188 61.9899L96.8698 68.0233L88.9122 75.9671C88.8847 75.9946 88.8435 75.9946 88.8298 75.9671L82.865 69.9337ZM86.8232 85.8075L106.806 65.9755L114.75 73.988L94.8632 93.8338C94.8481 93.8406 94.8317 93.8441 94.8151 93.8441C94.7985 93.8441 94.7821 93.8406 94.767 93.8338L86.8232 85.8075ZM92.7742 103.674L124.687 71.9265L130.638 77.9737L98.8213 109.708C98.8152 109.714 98.8077 109.719 98.7995 109.723C98.7912 109.727 98.7823 109.728 98.7732 109.728C98.7642 109.728 98.7553 109.727 98.747 109.723C98.7388 109.719 98.7313 109.714 98.7251 109.708L92.7742 103.674ZM101.776 126.585C101.762 126.612 101.721 126.612 101.694 126.585L95.7428 120.551L141.578 74.9226L147.529 80.956L101.776 126.585Z" fill="#2D4356"/>
<path d="M120.632 115.556L124.52 111.669L149.508 136.659L145.621 140.544L120.632 115.556ZM132.562 103.654L136.449 99.7683L161.423 124.743L157.537 128.63L132.562 103.654Z" fill="#0BCEB2"/>
<path d="M52.6154 232.397C54.1335 232.397 55.3641 231.166 55.3641 229.648C55.3641 228.13 54.1335 226.899 52.6154 226.899C51.0973 226.899 49.8667 228.13 49.8667 229.648C49.8667 231.166 51.0973 232.397 52.6154 232.397Z" fill="#2D4356"/>
<path d="M64.9846 226.899H60.8615C60.1325 226.899 59.4334 227.189 58.9179 227.704C58.4024 228.22 58.1128 228.919 58.1128 229.648C58.1128 230.377 58.4024 231.076 58.9179 231.592C59.4334 232.107 60.1325 232.397 60.8615 232.397H64.9846C65.7136 232.397 66.4128 232.107 66.9283 231.592C67.4437 231.076 67.7333 230.377 67.7333 229.648C67.7333 228.919 67.4437 228.22 66.9283 227.704C66.4128 227.189 65.7136 226.899 64.9846 226.899ZM269.764 226.899H265.641C264.912 226.899 264.213 227.189 263.697 227.704C263.182 228.22 262.892 228.919 262.892 229.648C262.892 230.377 263.182 231.076 263.697 231.592C264.213 232.107 264.912 232.397 265.641 232.397H269.764C270.493 232.397 271.192 232.107 271.708 231.592C272.223 231.076 272.513 230.377 272.513 229.648C272.513 228.919 272.223 228.22 271.708 227.704C271.192 227.189 270.493 226.899 269.764 226.899Z" fill="#2D4356"/>
<path d="M278.01 232.397C279.528 232.397 280.759 231.166 280.759 229.648C280.759 228.13 279.528 226.899 278.01 226.899C276.492 226.899 275.262 228.13 275.262 229.648C275.262 231.166 276.492 232.397 278.01 232.397Z" fill="#2D4356"/>
<path d="M257.01 226.899H247.568L251.636 222.845C252.153 222.33 252.564 221.718 252.845 221.044C253.125 220.37 253.27 219.647 253.272 218.917C253.273 218.187 253.13 217.464 252.852 216.789C252.574 216.114 252.165 215.501 251.65 214.984L245.685 209.019C245.672 209.005 245.658 209.005 245.644 208.991L247.678 206.957C248.199 206.444 248.612 205.832 248.893 205.157C249.174 204.482 249.317 203.758 249.314 203.027C249.315 202.297 249.172 201.574 248.894 200.9C248.616 200.225 248.207 199.612 247.692 199.096L239.748 191.166L239.707 191.125L241.741 189.091C242.78 188.046 243.363 186.633 243.363 185.16C243.363 183.687 242.78 182.274 241.741 181.229L235.749 175.237L238.772 172.227C239.817 171.185 240.405 169.772 240.408 168.297C240.411 167.565 240.268 166.841 239.987 166.166C239.706 165.491 239.293 164.879 238.772 164.366L232.821 158.401C231.776 157.364 230.363 156.783 228.891 156.783C227.418 156.783 226.006 157.364 224.96 158.401L209.993 173.327L206.104 177.202L198.064 185.229L194.174 189.104L179.208 204.03C178.689 204.545 178.278 205.157 177.997 205.832C177.717 206.506 177.572 207.23 177.572 207.961C177.572 208.691 177.717 209.415 177.997 210.089C178.278 210.764 178.689 211.376 179.208 211.891L185.159 217.842C186.203 218.881 187.616 219.464 189.089 219.464C190.562 219.464 191.975 218.881 193.02 217.842L196.057 214.819C196.071 214.832 196.071 214.86 196.098 214.874L202.049 220.825C202.564 221.343 203.177 221.754 203.851 222.035C204.526 222.316 205.249 222.46 205.98 222.46C207.452 222.457 208.864 221.874 209.911 220.838L211.945 218.804L219.93 226.789C219.971 226.83 220.012 226.858 220.054 226.899H110.572C110.613 226.858 110.655 226.83 110.696 226.789L118.681 218.804L120.715 220.838C121.761 221.874 123.173 222.457 124.646 222.46C125.376 222.46 126.1 222.316 126.774 222.035C127.449 221.754 128.061 221.343 128.576 220.825L134.527 214.874C134.555 214.86 134.555 214.832 134.568 214.819L137.606 217.856C138.654 218.889 140.068 219.467 141.539 219.464C143.011 219.461 144.422 218.879 145.467 217.842L151.418 211.891C151.936 211.376 152.348 210.764 152.628 210.089C152.909 209.415 153.053 208.691 153.053 207.961C153.053 207.23 152.909 206.506 152.628 205.832C152.348 205.157 151.936 204.545 151.418 204.03L136.451 189.104L132.562 185.229L124.522 177.202L120.632 173.327L105.666 158.401C104.62 157.364 103.207 156.783 101.735 156.783C100.263 156.783 98.8499 157.364 97.8043 158.401L91.8533 164.366C91.3326 164.879 90.9196 165.491 90.6388 166.166C90.3579 166.841 90.2148 167.565 90.2178 168.297C90.2206 169.772 90.8088 171.185 91.8533 172.227L94.8769 175.237L88.8847 181.229C87.846 182.274 87.263 183.687 87.263 185.16C87.263 186.633 87.846 188.046 88.8847 189.091L90.9188 191.125C90.905 191.138 90.8913 191.138 90.8775 191.152L82.9337 199.096C82.4185 199.612 82.0101 200.225 81.7318 200.9C81.4535 201.574 81.3109 202.297 81.312 203.027C81.309 203.758 81.4521 204.482 81.7329 205.157C82.0138 205.832 82.4267 206.444 82.9475 206.957L84.9815 208.991C84.9678 209.005 84.9541 209.005 84.9403 209.019L78.9756 214.984C78.4602 215.501 78.0517 216.114 77.7735 216.789C77.4952 217.464 77.3527 218.187 77.354 218.917C77.3552 219.647 77.5003 220.37 77.7809 221.044C78.0615 221.718 78.4721 222.33 78.9893 222.845L83.0574 226.899H73.6156C73.2246 226.848 72.8271 226.881 72.4498 226.996C72.0725 227.111 71.724 227.304 71.4277 227.565C71.1313 227.825 70.8938 228.145 70.7312 228.504C70.5685 228.864 70.4844 229.254 70.4844 229.648C70.4844 230.042 70.5685 230.432 70.7312 230.791C70.8938 231.151 71.1313 231.471 71.4277 231.731C71.724 231.991 72.0725 232.185 72.4498 232.3C72.8271 232.415 73.2246 232.448 73.6156 232.397H257.01C257.401 232.448 257.799 232.415 258.176 232.3C258.553 232.185 258.902 231.991 259.198 231.731C259.494 231.471 259.732 231.151 259.894 230.791C260.057 230.432 260.141 230.042 260.141 229.648C260.141 229.254 260.057 228.864 259.894 228.504C259.732 228.145 259.494 227.825 259.198 227.565C258.902 227.304 258.553 227.111 258.176 226.996C257.799 226.881 257.401 226.848 257.01 226.899ZM101.776 162.291L147.556 207.961C147.556 207.988 147.542 207.988 147.529 208.002L141.495 213.953L95.7428 168.255L101.776 162.291ZM98.8213 179.168L99.0412 179.388L130.665 210.943C130.666 210.958 130.661 210.973 130.651 210.984L124.604 216.949L92.7742 185.119L98.8213 179.168ZM96.8697 220.921L90.8226 226.885L82.865 218.873L88.9122 212.908L89.0084 213.004L96.8835 220.893C96.8835 220.907 96.8835 220.921 96.8697 220.921ZM98.6702 226.899L100.759 224.81L100.8 224.769L102.834 226.803C102.879 226.831 102.92 226.863 102.958 226.899H98.6702ZM86.8232 202.985L94.8632 195.042L114.764 214.929C114.765 214.936 114.764 214.944 114.762 214.951C114.759 214.958 114.755 214.964 114.75 214.97L106.724 222.9L86.8232 202.985ZM189.048 213.953L183.097 208.002V207.919L228.932 162.291L234.883 168.324L189.048 213.953ZM205.939 216.949L199.974 210.984L231.901 179.168L237.851 185.201L205.939 216.949ZM215.875 214.97V214.887L215.985 214.777L235.859 195.042L243.802 203.068L223.819 222.9L215.875 214.97ZM227.667 226.899C227.705 226.863 227.747 226.831 227.791 226.803L229.825 224.769L229.866 224.81L231.955 226.899H227.667ZM233.756 220.921V220.852L241.796 212.908L247.761 218.955L239.707 226.885L233.756 220.921ZM194.174 99.771L198.064 103.647L206.104 111.673L209.993 115.549L224.96 130.474C225.475 130.991 226.088 131.4 226.763 131.679C227.438 131.957 228.161 132.099 228.891 132.096C230.364 132.095 231.776 131.512 232.821 130.474L238.772 124.509C239.293 123.996 239.706 123.384 239.987 122.709C240.268 122.034 240.411 121.31 240.408 120.579C240.405 119.104 239.817 117.69 238.772 116.648L235.735 113.638C235.749 113.625 235.776 113.611 235.79 113.597L241.741 107.646C242.78 106.602 243.363 105.188 243.363 103.715C243.363 102.242 242.78 100.829 241.741 99.7847L239.707 97.7507C239.721 97.7369 239.734 97.7369 239.748 97.7232L247.692 89.7794C248.207 89.2629 248.616 88.6499 248.894 87.9754C249.172 87.301 249.315 86.5783 249.314 85.8487C249.317 85.1176 249.174 84.3933 248.893 83.7183C248.612 83.0433 248.199 82.4312 247.678 81.9181L245.644 79.884C245.658 79.8703 245.672 79.8703 245.685 79.8565L251.65 73.8918C252.165 73.3748 252.574 72.7613 252.852 72.0864C253.13 71.4114 253.273 70.6883 253.272 69.9583C253.27 69.2283 253.125 68.5056 252.845 67.8317C252.564 67.1578 252.153 66.5457 251.636 66.0305L243.679 58.1004C242.633 57.0637 241.22 56.4821 239.748 56.4821C238.276 56.4821 236.863 57.0637 235.817 58.1004L229.866 64.0651L229.825 64.1064L227.791 62.0723C226.745 61.0345 225.331 60.4532 223.858 60.4558C222.384 60.4584 220.972 61.0446 219.93 62.0861L211.986 70.0299L211.945 70.0711L209.911 68.037C208.865 66.9992 207.451 66.4179 205.977 66.4205C204.504 66.4231 203.092 67.0093 202.049 68.0508L196.098 74.0018C196.071 74.0155 196.071 74.043 196.057 74.0567L193.02 71.0331C192.504 70.5168 191.891 70.1073 191.217 69.8279C190.542 69.5485 189.819 69.4046 189.089 69.4046C188.359 69.4046 187.636 69.5485 186.962 69.8279C186.287 70.1073 185.675 70.5168 185.159 71.0331L179.208 76.9841C178.689 77.4991 178.278 78.1115 177.997 78.7861C177.717 79.4607 177.572 80.1841 177.572 80.9148C177.572 81.6454 177.717 82.3688 177.997 83.0434C178.278 83.718 178.689 84.3304 179.208 84.8454L194.174 99.771ZM239.803 61.9899L247.761 70.0024L241.796 75.9671H241.713L233.756 67.9546L239.803 61.9899ZM223.902 65.9755L243.802 85.89L235.859 93.8338H235.762L215.875 73.9193L223.902 65.9755ZM206.021 71.9402L237.851 103.757L231.901 109.708H231.804L199.974 77.8912L206.021 71.9402ZM189.13 74.9226L234.883 120.62L228.932 126.585L183.097 80.8735L189.13 74.9226Z" fill="#2D4356"/>
<path d="M198.064 103.647L124.522 177.202L120.632 173.327L194.174 99.771L198.064 103.647ZM209.993 115.549L136.451 189.104L132.562 185.229L206.104 111.673L209.993 115.549ZM181.137 152.192L185.031 148.312L209.975 173.346L206.082 177.224L181.137 152.192ZM169.223 164.107L173.115 160.228L198.046 185.247L194.154 189.126L169.223 164.107Z" fill="#0BCEB2"/>
<path d="M223.036 51.3908C223.851 51.3908 224.649 51.149 225.327 50.696C226.005 50.2429 226.533 49.599 226.845 48.8456C227.157 48.0922 227.239 47.2632 227.08 46.4634C226.921 45.6636 226.528 44.9289 225.951 44.3523C225.375 43.7757 224.64 43.383 223.84 43.2239C223.04 43.0648 222.211 43.1464 221.458 43.4585C220.705 43.7706 220.061 44.299 219.608 44.9771C219.155 45.6551 218.913 46.4523 218.913 47.2677C218.914 48.3609 219.349 49.409 220.122 50.182C220.895 50.955 221.943 51.3897 223.036 51.3908ZM223.036 45.2062C223.444 45.2062 223.842 45.3271 224.181 45.5536C224.52 45.7802 224.784 46.1021 224.94 46.4788C225.097 46.8555 225.137 47.27 225.058 47.6699C224.978 48.0698 224.782 48.4372 224.494 48.7255C224.205 49.0138 223.838 49.2101 223.438 49.2897C223.038 49.3692 222.624 49.3284 222.247 49.1724C221.87 49.0163 221.548 48.7521 221.322 48.4131C221.095 48.0741 220.974 47.6755 220.974 47.2677C220.975 46.7211 221.192 46.197 221.579 45.8104C221.965 45.4239 222.489 45.2066 223.036 45.2062ZM275.262 102.877C274.718 102.877 274.186 103.038 273.734 103.34C273.282 103.642 272.93 104.072 272.722 104.574C272.514 105.076 272.46 105.629 272.566 106.162C272.672 106.695 272.933 107.185 273.318 107.569C273.702 107.954 274.192 108.216 274.725 108.322C275.258 108.428 275.811 108.373 276.313 108.165C276.816 107.957 277.245 107.605 277.547 107.153C277.849 106.701 278.01 106.169 278.01 105.626C278.01 104.897 277.72 104.198 277.204 103.683C276.689 103.168 275.99 102.878 275.262 102.877ZM275.262 107C274.99 107 274.724 106.92 274.498 106.769C274.272 106.617 274.096 106.403 273.992 106.152C273.888 105.901 273.861 105.624 273.914 105.358C273.967 105.091 274.098 104.846 274.29 104.654C274.482 104.462 274.727 104.331 274.993 104.278C275.26 104.225 275.536 104.252 275.787 104.356C276.039 104.46 276.253 104.636 276.404 104.862C276.555 105.088 276.636 105.354 276.636 105.626C276.636 105.99 276.491 106.34 276.233 106.597C275.975 106.855 275.626 107 275.262 107ZM68.1525 29.6787C67.6089 29.6787 67.0774 29.8399 66.6254 30.1419C66.1734 30.444 65.8211 30.8733 65.613 31.3755C65.405 31.8778 65.3505 32.4305 65.4566 32.9637C65.5627 33.4969 65.8244 33.9866 66.2089 34.3711C66.5933 34.7555 67.0831 35.0173 67.6162 35.1233C68.1494 35.2294 68.7021 35.1749 69.2044 34.9669C69.7066 34.7589 70.1359 34.4065 70.438 33.9545C70.74 33.5025 70.9012 32.9711 70.9012 32.4274C70.9005 31.6986 70.6107 30.9999 70.0953 30.4846C69.58 29.9693 68.8813 29.6794 68.1525 29.6787ZM68.1525 33.8018C67.8807 33.8018 67.615 33.7212 67.3889 33.5702C67.1629 33.4191 66.9868 33.2045 66.8828 32.9534C66.7787 32.7022 66.7515 32.4259 66.8045 32.1593C66.8576 31.8927 66.9885 31.6478 67.1807 31.4556C67.3729 31.2634 67.6178 31.1325 67.8844 31.0795C68.151 31.0264 68.4273 31.0536 68.6784 31.1577C68.9296 31.2617 69.1442 31.4378 69.2952 31.6639C69.4463 31.8899 69.5269 32.1556 69.5269 32.4274C69.5265 32.7918 69.3816 33.1412 69.1239 33.3988C68.8663 33.6565 68.5169 33.8014 68.1525 33.8018ZM267.435 37.2377C266.891 37.2377 266.359 37.3989 265.907 37.7009C265.455 38.0029 265.103 38.4322 264.895 38.9345C264.687 39.4368 264.633 39.9894 264.739 40.5226C264.845 41.0558 265.107 41.5456 265.491 41.93C265.875 42.3144 266.365 42.5762 266.898 42.6823C267.432 42.7884 267.984 42.7339 268.486 42.5259C268.989 42.3178 269.418 41.9655 269.72 41.5135C270.022 41.0615 270.183 40.53 270.183 39.9864C270.183 39.2576 269.893 38.5589 269.377 38.0436C268.862 37.5282 268.163 37.2384 267.435 37.2377ZM267.435 41.3607C267.163 41.3607 266.897 41.2801 266.671 41.1291C266.445 40.9781 266.269 40.7635 266.165 40.5123C266.061 40.2612 266.034 39.9849 266.087 39.7183C266.14 39.4517 266.271 39.2068 266.463 39.0146C266.655 38.8224 266.9 38.6915 267.166 38.6384C267.433 38.5854 267.709 38.6126 267.961 38.7166C268.212 38.8207 268.426 38.9968 268.577 39.2228C268.728 39.4488 268.809 39.7146 268.809 39.9864C268.809 40.3508 268.664 40.7001 268.406 40.9578C268.148 41.2155 267.799 41.3604 267.435 41.3607ZM117.952 50.7036C117.952 50.16 117.791 49.6286 117.489 49.1765C117.187 48.7245 116.758 48.3722 116.256 48.1642C115.753 47.9561 115.201 47.9017 114.667 48.0077C114.134 48.1138 113.644 48.3756 113.26 48.76C112.876 49.1444 112.614 49.6342 112.508 50.1674C112.402 50.7006 112.456 51.2533 112.664 51.7555C112.872 52.2578 113.225 52.6871 113.677 52.9891C114.129 53.2911 114.66 53.4524 115.204 53.4524C115.932 53.4516 116.631 53.1618 117.147 52.6465C117.662 52.1311 117.952 51.4324 117.952 50.7036ZM113.829 50.7036C113.829 50.4318 113.91 50.1661 114.061 49.9401C114.212 49.7141 114.427 49.5379 114.678 49.4339C114.929 49.3299 115.205 49.3027 115.472 49.3557C115.738 49.4087 115.983 49.5396 116.175 49.7318C116.368 49.924 116.499 50.1689 116.552 50.4355C116.605 50.7021 116.577 50.9785 116.473 51.2296C116.369 51.4807 116.193 51.6954 115.967 51.8464C115.741 51.9974 115.476 52.078 115.204 52.078C114.839 52.0776 114.49 51.9327 114.232 51.6751C113.975 51.4174 113.83 51.068 113.829 50.7036Z" fill="#2D4356"/>
<path d="M61.0141 76.8962L63.0564 74.2079L61.7659 73.4768L60.4547 76.4866H60.4107L59.079 73.4987L57.7651 74.2505L59.7882 76.8742V76.9181L56.6258 76.5086V77.9709L59.8088 77.5627V77.6053L57.7651 80.229L58.991 81.0041L60.3901 77.9709H60.4327L61.7233 80.9821L63.0784 80.207L61.0141 77.6273V77.5833L64.2603 77.9709V76.5086L61.0141 76.9388V76.8962ZM161.058 60.9275L159.881 62.4379L160.588 62.8832L161.393 61.1378H161.418L162.16 62.8708L162.941 62.4255L161.752 60.9385V60.9151L163.621 61.1378V60.2953L161.752 60.5427V60.5179L162.928 58.9704L162.186 58.5498L161.43 60.2829H161.406L160.639 58.5622L159.881 58.9951L161.047 60.5055V60.5303L159.226 60.2953V61.1378L161.058 60.9027V60.9275ZM263.311 89.0702V87.6354L260.127 88.0573V88.0147L262.131 85.3787L260.865 84.6627L259.579 87.6148H259.536L258.229 84.6833L256.941 85.4213L258.925 87.9941V88.0367L255.823 87.6354V89.0702L258.945 88.6703V88.7115L256.941 91.2843L258.144 92.0443L259.516 89.0702H259.557L260.823 92.0224L262.152 91.2637L260.127 88.7321V88.6909L263.311 89.0702ZM178.055 32.136L179.783 29.8628L178.692 29.2444L177.583 31.7911H177.546L176.418 29.2623L175.307 29.8986L177.018 32.1182V32.1553L174.342 31.8089V33.0459L177.036 32.7009V32.7366L175.307 34.9562L176.343 35.6118L177.528 33.0459H177.564L178.655 35.5939L179.801 34.9384L178.055 32.7545V32.7188L180.802 33.0459V31.8089L178.055 32.1731V32.136Z" fill="#0BCEB2"/>
</g>
<path d="M342.494 93.7716C342.494 88.6154 343.462 83.8029 345.4 79.3341C347.337 74.8341 350.165 70.9279 353.884 67.6154C357.603 64.3029 362.165 61.6935 367.572 59.7872C373.009 57.881 379.228 56.9279 386.228 56.9279C388.759 56.9279 391.29 57.0685 393.822 57.3497C396.384 57.5997 398.9 58.006 401.369 58.5685C403.869 59.131 406.29 59.8497 408.634 60.7247C411.009 61.5685 413.259 62.5841 415.384 63.7716L408.54 75.0216C407.259 74.2716 405.806 73.5997 404.181 73.006C402.556 72.381 400.806 71.8654 398.931 71.4591C397.087 71.0216 395.165 70.6935 393.165 70.4747C391.197 70.256 389.212 70.1466 387.212 70.1466C382.587 70.1466 378.462 70.7404 374.837 71.9279C371.212 73.0841 368.15 74.7247 365.65 76.8497C363.15 78.9435 361.244 81.4591 359.931 84.3966C358.619 87.3341 357.962 90.5529 357.962 94.0529C357.962 97.6779 358.65 101.006 360.025 104.037C361.4 107.068 363.353 109.678 365.884 111.865C368.415 114.053 371.478 115.772 375.072 117.022C378.665 118.24 382.681 118.85 387.119 118.85C390.65 118.85 393.884 118.459 396.822 117.678C399.759 116.865 402.322 115.725 404.509 114.256C406.697 112.787 408.478 111.022 409.853 108.959C411.228 106.865 412.134 104.522 412.572 101.928H386.978V89.6935H425.931V89.7404L425.978 89.6935C426.759 93.4435 426.994 97.0997 426.681 100.662C426.4 104.193 425.587 107.537 424.244 110.693C422.931 113.818 421.119 116.693 418.806 119.318C416.494 121.943 413.728 124.209 410.509 126.115C407.29 127.99 403.634 129.459 399.54 130.522C395.447 131.553 390.962 132.068 386.087 132.068C379.275 132.068 373.165 131.068 367.759 129.068C362.384 127.068 357.822 124.334 354.072 120.865C350.322 117.397 347.447 113.334 345.447 108.678C343.478 104.022 342.494 99.0529 342.494 93.7716ZM465.962 112.943L433.947 57.8185H450.775L473.322 99.4904L495.587 57.8185H512.415L480.822 112.85V131.084H465.962V112.943ZM523.712 57.8185H538.572L565.197 84.5372L591.822 57.8185H606.681V131.084H591.822V78.3966L565.197 104.037L538.572 78.3966V131.084H523.712V57.8185ZM347.509 177.818H386.65C391.431 177.818 395.587 178.334 399.119 179.365C402.681 180.365 405.634 181.756 407.978 183.537C410.322 185.318 412.056 187.443 413.181 189.912C414.337 192.35 414.915 194.99 414.915 197.834C414.915 202.49 413.447 206.568 410.509 210.068C413.884 212.068 416.4 214.662 418.056 217.85C419.712 221.037 420.54 224.662 420.54 228.725C420.54 232.131 419.962 235.209 418.806 237.959C417.681 240.709 415.947 243.068 413.603 245.037C411.29 246.975 408.353 248.475 404.79 249.537C401.259 250.568 397.087 251.084 392.275 251.084H347.509V177.818ZM392.369 205.943C393.65 205.943 394.9 205.99 396.119 206.084C398.212 204.084 399.259 201.803 399.259 199.24C399.259 196.584 398.212 194.537 396.119 193.1C394.056 191.631 391.025 190.897 387.025 190.897H362.369V205.943H392.369ZM392.65 238.147C396.65 238.147 399.681 237.287 401.744 235.568C403.837 233.85 404.884 231.428 404.884 228.303C404.884 225.178 403.837 222.74 401.744 220.99C399.681 219.24 396.65 218.365 392.65 218.365H362.369V238.147H392.65ZM432.869 177.818H447.728V218.178C447.728 221.49 448.181 224.443 449.087 227.037C449.994 229.6 451.337 231.772 453.119 233.553C454.931 235.334 457.165 236.693 459.822 237.631C462.478 238.537 465.572 238.99 469.103 238.99C472.603 238.99 475.681 238.537 478.337 237.631C481.025 236.693 483.259 235.334 485.04 233.553C486.853 231.772 488.212 229.6 489.119 227.037C490.025 224.443 490.478 221.49 490.478 218.178V177.818H505.337V219.959C505.337 224.772 504.525 229.147 502.9 233.084C501.275 237.022 498.915 240.397 495.822 243.209C492.728 246.022 488.931 248.193 484.431 249.725C479.962 251.256 474.853 252.022 469.103 252.022C463.353 252.022 458.228 251.256 453.728 249.725C449.259 248.193 445.478 246.022 442.384 243.209C439.29 240.397 436.931 237.022 435.306 233.084C433.681 229.147 432.869 224.772 432.869 219.959V177.818ZM523.478 177.818H550.337C558.181 177.818 564.994 178.662 570.775 180.35C576.556 182.037 581.337 184.459 585.119 187.615C588.931 190.74 591.759 194.553 593.603 199.053C595.478 203.522 596.415 208.553 596.415 214.147C596.415 219.459 595.494 224.381 593.65 228.912C591.806 233.412 588.994 237.318 585.212 240.631C581.431 243.912 576.65 246.49 570.869 248.365C565.087 250.209 558.275 251.131 550.431 251.131L523.478 251.084V177.818ZM553.994 238.24C558.431 238.24 562.322 237.678 565.665 236.553C569.009 235.397 571.79 233.772 574.009 231.678C576.259 229.584 577.947 227.053 579.072 224.084C580.197 221.115 580.759 217.803 580.759 214.147C580.759 210.553 580.197 207.318 579.072 204.443C577.947 201.537 576.259 199.084 574.009 197.084C571.79 195.053 569.009 193.49 565.665 192.397C562.322 191.303 558.431 190.756 553.994 190.756H538.337V238.24H553.994ZM611.322 177.818H638.181C646.025 177.818 652.837 178.662 658.619 180.35C664.4 182.037 669.181 184.459 672.962 187.615C676.775 190.74 679.603 194.553 681.447 199.053C683.322 203.522 684.259 208.553 684.259 214.147C684.259 219.459 683.337 224.381 681.494 228.912C679.65 233.412 676.837 237.318 673.056 240.631C669.275 243.912 664.494 246.49 658.712 248.365C652.931 250.209 646.119 251.131 638.275 251.131L611.322 251.084V177.818ZM641.837 238.24C646.275 238.24 650.165 237.678 653.509 236.553C656.853 235.397 659.634 233.772 661.853 231.678C664.103 229.584 665.79 227.053 666.915 224.084C668.04 221.115 668.603 217.803 668.603 214.147C668.603 210.553 668.04 207.318 666.915 204.443C665.79 201.537 664.103 199.084 661.853 197.084C659.634 195.053 656.853 193.49 653.509 192.397C650.165 191.303 646.275 190.756 641.837 190.756H626.181V238.24H641.837ZM721.619 232.943L689.603 177.818H706.431L728.978 219.49L751.244 177.818H768.072L736.478 232.85V251.084H721.619V232.943Z" fill="white"/>
<defs>
<clipPath id="clip0_1_2">
<rect width="278.995" height="246.01" fill="white" transform="translate(49.8667 24.9949)"/>
</clipPath>
</defs>
</svg>
